<svg width="403" height="654" viewBox="0 0 403 654" fill="none" xmlns="http://www.w3.org/2000/svg">
<path d="M294.481 103.418H306.428C318.374 103.418 330.072 104.91 341.521 107.894C352.969 110.381 363.174 115.105 372.134 122.068C381.093 128.533 388.311 137.485 393.787 148.924C399.262 160.362 402 175.033 402 192.937V443.592C402 460.998 399.511 475.918 394.533 488.351C389.556 500.287 382.836 510.234 374.374 518.191C366.409 526.148 356.952 532.116 346.001 536.095C335.547 539.576 324.347 541.317 312.401 541.317C309.414 541.317 306.428 541.317 303.441 541.317C300.454 540.82 297.468 540.322 294.481 539.825V103.418ZM199.656 436.132C188.207 436.132 177.256 434.142 166.803 430.164C156.847 425.688 147.887 419.471 139.923 411.514C131.959 403.059 125.488 392.864 120.51 380.928C116.03 368.495 113.79 354.072 113.79 337.66V103.418H129.47C159.834 103.418 182.731 111.624 198.162 128.036C213.593 143.95 221.309 170.06 221.309 206.365V312.297C221.309 318.265 221.558 323.984 222.055 329.454C223.051 334.925 224.544 339.898 226.535 344.374C229.024 348.353 232.26 351.834 236.242 354.818C240.722 357.305 246.695 358.548 254.162 358.548C258.144 358.548 262.126 358.051 266.108 357.056C270.588 355.564 274.57 353.326 278.055 350.342C278.055 361.781 276.561 372.722 273.575 383.166C270.588 393.113 265.859 402.065 259.388 410.022C252.917 417.979 244.704 424.444 234.749 429.418C224.793 433.894 213.095 436.132 199.656 436.132ZM169.789 574.141C169.789 558.724 172.527 546.29 178.003 536.841C183.478 526.894 190.198 519.186 198.162 513.715C206.624 508.245 215.335 504.763 224.295 503.271C233.753 501.282 241.966 500.287 248.935 500.287C252.419 500.287 255.904 500.536 259.388 501.033C263.37 501.033 265.859 501.282 266.855 501.779V536.095C266.855 546.539 269.344 554.248 274.321 559.221C279.299 564.194 285.521 566.681 292.988 566.681C301.948 566.681 309.912 563.697 316.881 557.729C318.374 561.707 319.121 565.437 319.121 568.919C319.619 571.903 319.868 575.384 319.868 579.363C319.868 585.331 318.374 592.293 315.388 600.251C312.899 607.711 308.668 614.922 302.694 621.884C297.219 628.35 289.752 634.069 280.295 639.042C271.335 643.518 260.384 645.756 247.442 645.756C234.002 645.756 222.304 643.518 212.349 639.042C202.891 634.566 194.927 629.096 188.456 622.63C182.483 615.668 177.754 607.959 174.269 599.505C171.283 591.05 169.789 582.595 169.789 574.141Z" stroke="#3F66F2" stroke-opacity="0.6" stroke-width="0.740899"/>
<g filter="url(#filter0_f_416_9682)">
<path d="M236.691 56H248.638C260.584 56 272.282 57.492 283.731 60.476C295.179 62.9626 305.384 67.6872 314.344 74.6499C323.303 81.1151 330.521 90.0671 335.997 101.506C341.472 112.944 344.21 127.616 344.21 145.519V396.174C344.21 413.58 341.721 428.5 336.743 440.933C331.766 452.869 325.046 462.816 316.584 470.773C308.619 478.73 299.161 484.698 288.211 488.677C277.757 492.158 266.557 493.899 254.611 493.899C251.624 493.899 248.638 493.899 245.651 493.899C242.664 493.402 239.678 492.904 236.691 492.407V56ZM141.866 388.714C130.417 388.714 119.466 386.724 109.013 382.746C99.0573 378.27 90.0974 372.053 82.133 364.096C74.1687 355.641 67.6976 345.446 62.7199 333.51C58.24 321.077 56 306.654 56 290.242V56H71.6798C102.044 56 124.941 64.2059 140.372 80.6178C155.803 96.5324 163.519 122.642 163.519 158.947V264.879C163.519 270.847 163.768 276.566 164.265 282.036C165.261 287.507 166.754 292.48 168.745 296.956C171.234 300.935 174.47 304.416 178.452 307.4C182.932 309.887 188.905 311.13 196.372 311.13C200.354 311.13 204.336 310.633 208.318 309.638C212.798 308.146 216.78 305.908 220.265 302.924C220.265 314.363 218.771 325.304 215.785 335.748C212.798 345.695 208.069 354.647 201.598 362.604C195.127 370.561 186.914 377.026 176.959 382C167.003 386.476 155.305 388.714 141.866 388.714ZM111.999 526.723C111.999 511.306 114.737 498.872 120.213 489.423C125.688 479.476 132.408 471.768 140.372 466.297C148.834 460.827 157.545 457.345 166.505 455.853C175.963 453.864 184.176 452.869 191.145 452.869C194.629 452.869 198.114 453.118 201.598 453.615C205.58 453.615 208.069 453.864 209.065 454.361V488.677C209.065 499.121 211.554 506.83 216.531 511.803C221.509 516.776 227.731 519.263 235.198 519.263C244.158 519.263 252.122 516.279 259.091 510.311C260.584 514.29 261.331 518.019 261.331 521.501C261.829 524.485 262.077 527.966 262.077 531.945C262.077 537.913 260.584 544.875 257.598 552.833C255.109 560.293 250.878 567.504 244.904 574.466C239.429 580.932 231.962 586.651 222.505 591.624C213.545 596.1 202.594 598.338 189.652 598.338C176.212 598.338 164.514 596.1 154.559 591.624C145.101 587.148 137.137 581.678 130.666 575.212C124.692 568.25 119.964 560.541 116.479 552.087C113.493 543.632 111.999 535.177 111.999 526.723Z" stroke="#0038FF" stroke-opacity="0.6" stroke-width="37.045"/>
</g>
<g filter="url(#filter1_f_416_9682)">
<path d="M236.691 56H248.638C260.584 56 272.282 57.492 283.731 60.476C295.179 62.9626 305.384 67.6872 314.344 74.6499C323.303 81.1152 330.521 90.0671 335.997 101.506C341.472 112.944 344.21 127.616 344.21 145.519V396.174C344.21 413.58 341.721 428.5 336.743 440.933C331.766 452.869 325.046 462.816 316.583 470.773C308.619 478.73 299.161 484.698 288.211 488.677C277.757 492.158 266.557 493.899 254.611 493.899C251.624 493.899 248.638 493.899 245.651 493.899C242.664 493.402 239.678 492.904 236.691 492.407V56ZM141.866 388.714C130.417 388.714 119.466 386.724 109.013 382.746C99.0573 378.27 90.0974 372.053 82.133 364.096C74.1687 355.641 67.6976 345.446 62.7199 333.51C58.24 321.077 56 306.654 56 290.242V56H71.6798C102.044 56 124.941 64.2059 140.372 80.6178C155.803 96.5324 163.519 122.642 163.519 158.947V264.879C163.519 270.847 163.768 276.566 164.265 282.036C165.261 287.507 166.754 292.48 168.745 296.956C171.234 300.935 174.47 304.416 178.452 307.4C182.932 309.887 188.905 311.13 196.372 311.13C200.354 311.13 204.336 310.633 208.318 309.638C212.798 308.146 216.78 305.908 220.265 302.924C220.265 314.363 218.771 325.304 215.785 335.748C212.798 345.695 208.069 354.647 201.598 362.604C195.127 370.561 186.914 377.026 176.959 382C167.003 386.476 155.305 388.714 141.866 388.714ZM111.999 526.723C111.999 511.306 114.737 498.872 120.213 489.423C125.688 479.476 132.408 471.768 140.372 466.297C148.834 460.827 157.545 457.345 166.505 455.853C175.963 453.864 184.176 452.869 191.145 452.869C194.629 452.869 198.114 453.118 201.598 453.615C205.58 453.615 208.069 453.864 209.065 454.361V488.677C209.065 499.121 211.554 506.83 216.531 511.803C221.509 516.776 227.731 519.263 235.198 519.263C244.158 519.263 252.122 516.279 259.091 510.311C260.584 514.29 261.331 518.02 261.331 521.501C261.829 524.485 262.077 527.966 262.077 531.945C262.077 537.913 260.584 544.875 257.598 552.833C255.109 560.293 250.878 567.504 244.904 574.466C239.429 580.932 231.962 586.651 222.505 591.624C213.545 596.1 202.594 598.338 189.652 598.338C176.212 598.338 164.514 596.1 154.559 591.624C145.101 587.148 137.137 581.678 130.666 575.212C124.692 568.25 119.964 560.541 116.479 552.087C113.493 543.632 111.999 535.177 111.999 526.723Z" stroke="white" stroke-opacity="0.8" stroke-width="1.4818"/>
</g>
<g filter="url(#filter2_d_416_9682)">
<path d="M236.691 56H248.638C260.584 56 272.282 57.492 283.731 60.476C295.179 62.9626 305.384 67.6872 314.344 74.6499C323.303 81.1152 330.521 90.0671 335.997 101.506C341.472 112.944 344.21 127.616 344.21 145.519V396.174C344.21 413.58 341.721 428.5 336.743 440.933C331.766 452.869 325.046 462.816 316.583 470.773C308.619 478.73 299.161 484.698 288.211 488.677C277.757 492.158 266.557 493.899 254.611 493.899C251.624 493.899 248.638 493.899 245.651 493.899C242.664 493.402 239.678 492.904 236.691 492.407V56ZM141.866 388.714C130.417 388.714 119.466 386.724 109.013 382.746C99.0573 378.27 90.0974 372.053 82.133 364.096C74.1687 355.641 67.6976 345.446 62.7199 333.51C58.24 321.077 56 306.654 56 290.242V56H71.6798C102.044 56 124.941 64.2059 140.372 80.6178C155.803 96.5324 163.519 122.642 163.519 158.947V264.879C163.519 270.847 163.768 276.566 164.265 282.036C165.261 287.507 166.754 292.48 168.745 296.956C171.234 300.935 174.47 304.416 178.452 307.4C182.932 309.887 188.905 311.13 196.372 311.13C200.354 311.13 204.336 310.633 208.318 309.638C212.798 308.146 216.78 305.908 220.265 302.924C220.265 314.363 218.771 325.304 215.785 335.748C212.798 345.695 208.069 354.647 201.598 362.604C195.127 370.561 186.914 377.026 176.959 382C167.003 386.476 155.305 388.714 141.866 388.714ZM111.999 526.723C111.999 511.306 114.737 498.872 120.213 489.423C125.688 479.476 132.408 471.768 140.372 466.297C148.834 460.827 157.545 457.345 166.505 455.853C175.963 453.864 184.176 452.869 191.145 452.869C194.629 452.869 198.114 453.118 201.598 453.615C205.58 453.615 208.069 453.864 209.065 454.361V488.677C209.065 499.121 211.554 506.83 216.531 511.803C221.509 516.776 227.731 519.263 235.198 519.263C244.158 519.263 252.122 516.279 259.091 510.311C260.584 514.29 261.331 518.02 261.331 521.501C261.829 524.485 262.077 527.966 262.077 531.945C262.077 537.913 260.584 544.875 257.598 552.833C255.109 560.293 250.878 567.504 244.904 574.466C239.429 580.932 231.962 586.651 222.505 591.624C213.545 596.1 202.594 598.338 189.652 598.338C176.212 598.338 164.514 596.1 154.559 591.624C145.101 587.148 137.137 581.678 130.666 575.212C124.692 568.25 119.964 560.541 116.479 552.087C113.493 543.632 111.999 535.177 111.999 526.723Z" stroke="#0038FF" stroke-width="5.9272" shape-rendering="crispEdges"/>
</g>
<g filter="url(#filter3_f_416_9682)">
<path d="M236.691 56H248.638C260.584 56 272.282 57.492 283.731 60.476C295.179 62.9626 305.384 67.6872 314.344 74.6499C323.303 81.1152 330.521 90.0671 335.997 101.506C341.472 112.944 344.21 127.616 344.21 145.519V396.174C344.21 413.58 341.721 428.5 336.743 440.933C331.766 452.869 325.046 462.816 316.583 470.773C308.619 478.73 299.161 484.698 288.211 488.677C277.757 492.158 266.557 493.899 254.611 493.899C251.624 493.899 248.638 493.899 245.651 493.899C242.664 493.402 239.678 492.904 236.691 492.407V56ZM141.866 388.714C130.417 388.714 119.466 386.724 109.013 382.746C99.0573 378.27 90.0974 372.053 82.133 364.096C74.1687 355.641 67.6976 345.446 62.7199 333.51C58.24 321.077 56 306.654 56 290.242V56H71.6798C102.044 56 124.941 64.2059 140.372 80.6178C155.803 96.5324 163.519 122.642 163.519 158.947V264.879C163.519 270.847 163.768 276.566 164.265 282.036C165.261 287.507 166.754 292.48 168.745 296.956C171.234 300.935 174.47 304.416 178.452 307.4C182.932 309.887 188.905 311.13 196.372 311.13C200.354 311.13 204.336 310.633 208.318 309.638C212.798 308.146 216.78 305.908 220.265 302.924C220.265 314.363 218.771 325.304 215.785 335.748C212.798 345.695 208.069 354.647 201.598 362.604C195.127 370.561 186.914 377.026 176.959 382C167.003 386.476 155.305 388.714 141.866 388.714ZM111.999 526.723C111.999 511.306 114.737 498.872 120.213 489.423C125.688 479.476 132.408 471.768 140.372 466.297C148.834 460.827 157.545 457.345 166.505 455.853C175.963 453.864 184.176 452.869 191.145 452.869C194.629 452.869 198.114 453.118 201.598 453.615C205.58 453.615 208.069 453.864 209.065 454.361V488.677C209.065 499.121 211.554 506.83 216.531 511.803C221.509 516.776 227.731 519.263 235.198 519.263C244.158 519.263 252.122 516.279 259.091 510.311C260.584 514.29 261.331 518.02 261.331 521.501C261.829 524.485 262.077 527.966 262.077 531.945C262.077 537.913 260.584 544.875 257.598 552.833C255.109 560.293 250.878 567.504 244.904 574.466C239.429 580.932 231.962 586.651 222.505 591.624C213.545 596.1 202.594 598.338 189.652 598.338C176.212 598.338 164.514 596.1 154.559 591.624C145.101 587.148 137.137 581.678 130.666 575.212C124.692 568.25 119.964 560.541 116.479 552.087C113.493 543.632 111.999 535.177 111.999 526.723Z" stroke="white" stroke-width="1.4818"/>
</g>
<g filter="url(#filter4_f_416_9682)">
<path d="M236.691 56H248.638C260.584 56 272.282 57.492 283.731 60.476C295.179 62.9626 305.384 67.6872 314.344 74.6499C323.303 81.1152 330.521 90.0671 335.997 101.506C341.472 112.944 344.21 127.616 344.21 145.519V396.174C344.21 413.58 341.721 428.5 336.743 440.933C331.766 452.869 325.046 462.816 316.583 470.773C308.619 478.73 299.161 484.698 288.211 488.677C277.757 492.158 266.557 493.899 254.611 493.899C251.624 493.899 248.638 493.899 245.651 493.899C242.664 493.402 239.678 492.904 236.691 492.407V56ZM141.866 388.714C130.417 388.714 119.466 386.724 109.013 382.746C99.0573 378.27 90.0974 372.053 82.133 364.096C74.1687 355.641 67.6976 345.446 62.7199 333.51C58.24 321.077 56 306.654 56 290.242V56H71.6798C102.044 56 124.941 64.2059 140.372 80.6178C155.803 96.5324 163.519 122.642 163.519 158.947V264.879C163.519 270.847 163.768 276.566 164.265 282.036C165.261 287.507 166.754 292.48 168.745 296.956C171.234 300.935 174.47 304.416 178.452 307.4C182.932 309.887 188.905 311.13 196.372 311.13C200.354 311.13 204.336 310.633 208.318 309.638C212.798 308.146 216.78 305.908 220.265 302.924C220.265 314.363 218.771 325.304 215.785 335.748C212.798 345.695 208.069 354.647 201.598 362.604C195.127 370.561 186.914 377.026 176.959 382C167.003 386.476 155.305 388.714 141.866 388.714ZM111.999 526.723C111.999 511.306 114.737 498.872 120.213 489.423C125.688 479.476 132.408 471.768 140.372 466.297C148.834 460.827 157.545 457.345 166.505 455.853C175.963 453.864 184.176 452.869 191.145 452.869C194.629 452.869 198.114 453.118 201.598 453.615C205.58 453.615 208.069 453.864 209.065 454.361V488.677C209.065 499.121 211.554 506.83 216.531 511.803C221.509 516.776 227.731 519.263 235.198 519.263C244.158 519.263 252.122 516.279 259.091 510.311C260.584 514.29 261.331 518.02 261.331 521.501C261.829 524.485 262.077 527.966 262.077 531.945C262.077 537.913 260.584 544.875 257.598 552.833C255.109 560.293 250.878 567.504 244.904 574.466C239.429 580.932 231.962 586.651 222.505 591.624C213.545 596.1 202.594 598.338 189.652 598.338C176.212 598.338 164.514 596.1 154.559 591.624C145.101 587.148 137.137 581.678 130.666 575.212C124.692 568.25 119.964 560.541 116.479 552.087C113.493 543.632 111.999 535.177 111.999 526.723Z" stroke="white" stroke-opacity="0.8" stroke-width="1.4818"/>
</g>
<g filter="url(#filter5_f_416_9682)">
<path d="M236.691 56H248.638C260.584 56 272.282 57.492 283.731 60.476C295.179 62.9626 305.384 67.6872 314.344 74.6499C323.303 81.1152 330.521 90.0671 335.997 101.506C341.472 112.944 344.21 127.616 344.21 145.519V396.174C344.21 413.58 341.721 428.5 336.743 440.933C331.766 452.869 325.046 462.816 316.583 470.773C308.619 478.73 299.161 484.698 288.211 488.677C277.757 492.158 266.557 493.899 254.611 493.899C251.624 493.899 248.638 493.899 245.651 493.899C242.664 493.402 239.678 492.904 236.691 492.407V56ZM141.866 388.714C130.417 388.714 119.466 386.724 109.013 382.746C99.0573 378.27 90.0974 372.053 82.133 364.096C74.1687 355.641 67.6976 345.446 62.7199 333.51C58.24 321.077 56 306.654 56 290.242V56H71.6798C102.044 56 124.941 64.2059 140.372 80.6178C155.803 96.5324 163.519 122.642 163.519 158.947V264.879C163.519 270.847 163.768 276.566 164.265 282.036C165.261 287.507 166.754 292.48 168.745 296.956C171.234 300.935 174.47 304.416 178.452 307.4C182.932 309.887 188.905 311.13 196.372 311.13C200.354 311.13 204.336 310.633 208.318 309.638C212.798 308.146 216.78 305.908 220.265 302.924C220.265 314.363 218.771 325.304 215.785 335.748C212.798 345.695 208.069 354.647 201.598 362.604C195.127 370.561 186.914 377.026 176.959 382C167.003 386.476 155.305 388.714 141.866 388.714ZM111.999 526.723C111.999 511.306 114.737 498.872 120.213 489.423C125.688 479.476 132.408 471.768 140.372 466.297C148.834 460.827 157.545 457.345 166.505 455.853C175.963 453.864 184.176 452.869 191.145 452.869C194.629 452.869 198.114 453.118 201.598 453.615C205.58 453.615 208.069 453.864 209.065 454.361V488.677C209.065 499.121 211.554 506.83 216.531 511.803C221.509 516.776 227.731 519.263 235.198 519.263C244.158 519.263 252.122 516.279 259.091 510.311C260.584 514.29 261.331 518.02 261.331 521.501C261.829 524.485 262.077 527.966 262.077 531.945C262.077 537.913 260.584 544.875 257.598 552.833C255.109 560.293 250.878 567.504 244.904 574.466C239.429 580.932 231.962 586.651 222.505 591.624C213.545 596.1 202.594 598.338 189.652 598.338C176.212 598.338 164.514 596.1 154.559 591.624C145.101 587.148 137.137 581.678 130.666 575.212C124.692 568.25 119.964 560.541 116.479 552.087C113.493 543.632 111.999 535.177 111.999 526.723Z" stroke="#00FFFF" stroke-width="0.740899"/>
</g>
<defs>
<filter id="filter0_f_416_9682" x="0.432568" y="0.432568" width="399.345" height="653.473" filterUnits="userSpaceOnUse" color-interpolation-filters="sRGB">
<feFlood flood-opacity="0" result="BackgroundImageFix"/>
<feBlend mode="normal" in="SourceGraphic" in2="BackgroundImageFix" result="shape"/>
<feGaussianBlur stdDeviation="18.5225" result="effect1_foregroundBlur_416_9682"/>
</filter>
<filter id="filter1_f_416_9682" x="53.777" y="53.777" width="292.656" height="546.784" filterUnits="userSpaceOnUse" color-interpolation-filters="sRGB">
<feFlood flood-opacity="0" result="BackgroundImageFix"/>
<feBlend mode="normal" in="SourceGraphic" in2="BackgroundImageFix" result="shape"/>
<feGaussianBlur stdDeviation="0.740899" result="effect1_foregroundBlur_416_9682"/>
</filter>
<filter id="filter2_d_416_9682" x="45.6271" y="45.6271" width="308.956" height="563.084" filterUnits="userSpaceOnUse" color-interpolation-filters="sRGB">
<feFlood flood-opacity="0" result="BackgroundImageFix"/>
<feColorMatrix in="SourceAlpha" type="matrix" values="0 0 0 0 0 0 0 0 0 0 0 0 0 0 0 0 0 0 127 0" result="hardAlpha"/>
<feOffset/>
<feGaussianBlur stdDeviation="3.7045"/>
<feComposite in2="hardAlpha" operator="out"/>
<feColorMatrix type="matrix" values="0 0 0 0 0 0 0 0 0 1 0 0 0 0 0.94 0 0 0 0.8 0"/>
<feBlend mode="normal" in2="BackgroundImageFix" result="effect1_dropShadow_416_9682"/>
<feBlend mode="normal" in="SourceGraphic" in2="effect1_dropShadow_416_9682" result="shape"/>
</filter>
<filter id="filter3_f_416_9682" x="52.2952" y="52.2952" width="295.62" height="549.748" filterUnits="userSpaceOnUse" color-interpolation-filters="sRGB">
<feFlood flood-opacity="0" result="BackgroundImageFix"/>
<feBlend mode="normal" in="SourceGraphic" in2="BackgroundImageFix" result="shape"/>
<feGaussianBlur stdDeviation="1.4818" result="effect1_foregroundBlur_416_9682"/>
</filter>
<filter id="filter4_f_416_9682" x="53.777" y="53.777" width="292.656" height="546.784" filterUnits="userSpaceOnUse" color-interpolation-filters="sRGB">
<feFlood flood-opacity="0" result="BackgroundImageFix"/>
<feBlend mode="normal" in="SourceGraphic" in2="BackgroundImageFix" result="shape"/>
<feGaussianBlur stdDeviation="0.740899" result="effect1_foregroundBlur_416_9682"/>
</filter>
<filter id="filter5_f_416_9682" x="54.1481" y="54.1481" width="291.914" height="546.043" filterUnits="userSpaceOnUse" color-interpolation-filters="sRGB">
<feFlood flood-opacity="0" result="BackgroundImageFix"/>
<feBlend mode="normal" in="SourceGraphic" in2="BackgroundImageFix" result="shape"/>
<feGaussianBlur stdDeviation="0.740899" result="effect1_foregroundBlur_416_9682"/>
</filter>
</defs>
</svg>
