<svg width="207" height="291" viewBox="0 0 207 291" fill="none" xmlns="http://www.w3.org/2000/svg">
<path d="M134.814 71.6709H138.762C142.71 71.6709 146.576 72.164 150.36 73.1501C154.143 73.9719 157.516 75.5334 160.477 77.8344C163.438 79.9711 165.823 82.9296 167.633 86.7099C169.442 90.4902 170.347 95.3389 170.347 101.256V184.094C170.347 189.846 169.525 194.777 167.88 198.886C166.235 202.831 164.014 206.118 161.217 208.748C158.585 211.378 155.459 213.35 151.84 214.665C148.386 215.815 144.684 216.391 140.736 216.391C139.749 216.391 138.762 216.391 137.775 216.391C136.788 216.226 135.801 216.062 134.814 215.898V71.6709ZM103.475 181.628C99.6914 181.628 96.0723 180.971 92.6176 179.656C89.3275 178.177 86.3664 176.122 83.7343 173.493C81.1022 170.698 78.9636 167.329 77.3185 163.384C75.8379 159.275 75.0977 154.509 75.0977 149.085V71.6709H80.2796C90.3146 71.6709 97.8819 74.3829 102.982 79.8068C108.081 85.0663 110.631 93.6953 110.631 105.694V140.703C110.631 142.675 110.713 144.565 110.878 146.373C111.207 148.181 111.7 149.825 112.358 151.304C113.181 152.619 114.25 153.769 115.566 154.755C117.047 155.577 119.021 155.988 121.489 155.988C122.805 155.988 124.121 155.824 125.437 155.495C126.917 155.002 128.233 154.262 129.385 153.276C129.385 157.056 128.891 160.672 127.904 164.124C126.917 167.411 125.355 170.37 123.216 172.999C121.077 175.629 118.363 177.766 115.073 179.41C111.783 180.889 107.917 181.628 103.475 181.628ZM93.6047 227.239C93.6047 222.143 94.5095 218.034 96.3191 214.911C98.1286 211.624 100.349 209.077 102.982 207.269C105.778 205.461 108.657 204.31 111.618 203.817C114.744 203.16 117.458 202.831 119.761 202.831C120.913 202.831 122.064 202.913 123.216 203.077C124.532 203.077 125.355 203.16 125.684 203.324V214.665C125.684 218.117 126.506 220.664 128.151 222.308C129.796 223.951 131.853 224.773 134.32 224.773C137.281 224.773 139.913 223.787 142.216 221.815C142.71 223.13 142.957 224.362 142.957 225.513C143.121 226.499 143.204 227.649 143.204 228.964C143.204 230.937 142.71 233.238 141.723 235.868C140.9 238.333 139.502 240.716 137.528 243.017C135.718 245.154 133.251 247.044 130.125 248.688C127.164 250.167 123.545 250.907 119.268 250.907C114.826 250.907 110.96 250.167 107.67 248.688C104.544 247.208 101.912 245.4 99.7737 243.264C97.7996 240.963 96.2368 238.415 95.0853 235.621C94.0982 232.827 93.6047 230.033 93.6047 227.239Z" stroke="#3F66F2" stroke-opacity="0.6" stroke-width="0.740899"/>
<g filter="url(#filter0_f_416_10127)">
<path d="M115.716 56H119.664C123.612 56 127.478 56.4931 131.262 57.4792C135.046 58.301 138.418 59.8625 141.379 62.1635C144.34 64.3002 146.726 67.2587 148.535 71.039C150.345 74.8193 151.25 79.668 151.25 85.585V168.423C151.25 174.176 150.427 179.106 148.782 183.215C147.137 187.16 144.916 190.447 142.119 193.077C139.487 195.707 136.362 197.679 132.743 198.994C129.288 200.145 125.586 200.72 121.638 200.72C120.651 200.72 119.664 200.72 118.677 200.72C117.69 200.555 116.703 200.391 115.716 200.227V56ZM84.3775 165.957C80.5938 165.957 76.9746 165.3 73.52 163.985C70.2299 162.506 67.2687 160.451 64.6366 157.822C62.0045 155.027 59.8659 151.658 58.2208 147.713C56.7403 143.604 56 138.838 56 133.414V56H61.182C71.2169 56 78.7842 58.712 83.8839 64.1359C88.9836 69.3954 91.5335 78.0244 91.5335 90.0227V125.032C91.5335 127.004 91.6158 128.894 91.7803 130.702C92.1093 132.51 92.6028 134.154 93.2608 135.633C94.0834 136.948 95.1527 138.098 96.4687 139.084C97.9493 139.906 99.9234 140.317 102.391 140.317C103.707 140.317 105.023 140.153 106.339 139.824C107.82 139.331 109.136 138.591 110.287 137.605C110.287 141.386 109.794 145.001 108.807 148.453C107.82 151.74 106.257 154.699 104.118 157.329C101.98 159.958 99.2653 162.095 95.9752 163.739C92.6851 165.218 88.8191 165.957 84.3775 165.957ZM74.507 211.568C74.507 206.472 75.4118 202.363 77.2214 199.241C79.031 195.953 81.2518 193.406 83.8839 191.598C86.6806 189.79 89.5594 188.639 92.5205 188.146C95.6462 187.489 98.3605 187.16 100.664 187.16C101.815 187.16 102.967 187.242 104.118 187.407C105.434 187.407 106.257 187.489 106.586 187.653V198.994C106.586 202.446 107.408 204.993 109.053 206.637C110.699 208.28 112.755 209.102 115.223 209.102C118.184 209.102 120.816 208.116 123.119 206.144C123.612 207.459 123.859 208.691 123.859 209.842C124.024 210.828 124.106 211.979 124.106 213.293C124.106 215.266 123.612 217.567 122.625 220.197C121.803 222.662 120.404 225.045 118.43 227.346C116.621 229.483 114.153 231.373 111.028 233.017C108.066 234.496 104.447 235.236 100.17 235.236C95.7284 235.236 91.8625 234.496 88.5724 233.017C85.4467 231.538 82.8146 229.73 80.676 227.593C78.702 225.292 77.1391 222.744 75.9876 219.95C75.0006 217.156 74.507 214.362 74.507 211.568Z" stroke="#0038FF" stroke-opacity="0.6" stroke-width="37.045"/>
</g>
<g filter="url(#filter1_f_416_10127)">
<path d="M115.716 56H119.664C123.612 56 127.478 56.4931 131.262 57.4792C135.046 58.301 138.418 59.8625 141.379 62.1635C144.34 64.3002 146.726 67.2587 148.535 71.039C150.345 74.8193 151.25 79.668 151.25 85.585V168.423C151.25 174.176 150.427 179.106 148.782 183.215C147.137 187.16 144.916 190.447 142.119 193.077C139.487 195.707 136.362 197.679 132.742 198.994C129.288 200.145 125.586 200.72 121.638 200.72C120.651 200.72 119.664 200.72 118.677 200.72C117.69 200.555 116.703 200.391 115.716 200.227V56ZM84.3775 165.957C80.5938 165.957 76.9746 165.3 73.52 163.985C70.2299 162.506 67.2687 160.451 64.6366 157.822C62.0045 155.027 59.8659 151.658 58.2208 147.713C56.7403 143.604 56 138.838 56 133.414V56H61.182C71.2169 56 78.7842 58.712 83.8839 64.1359C88.9836 69.3954 91.5335 78.0244 91.5335 90.0227V125.032C91.5335 127.004 91.6158 128.894 91.7803 130.702C92.1093 132.51 92.6028 134.154 93.2608 135.633C94.0834 136.948 95.1527 138.098 96.4687 139.084C97.9493 139.906 99.9234 140.317 102.391 140.317C103.707 140.317 105.023 140.153 106.339 139.824C107.82 139.331 109.136 138.591 110.287 137.605C110.287 141.386 109.794 145.001 108.807 148.453C107.82 151.74 106.257 154.699 104.118 157.329C101.98 159.958 99.2653 162.095 95.9752 163.739C92.6851 165.218 88.8191 165.957 84.3775 165.957ZM74.507 211.568C74.507 206.472 75.4118 202.363 77.2214 199.241C79.031 195.953 81.2518 193.406 83.8839 191.598C86.6805 189.79 89.5594 188.639 92.5205 188.146C95.6462 187.489 98.3605 187.16 100.664 187.16C101.815 187.16 102.967 187.242 104.118 187.407C105.434 187.407 106.257 187.489 106.586 187.653V198.994C106.586 202.446 107.408 204.993 109.053 206.637C110.699 208.28 112.755 209.102 115.223 209.102C118.184 209.102 120.816 208.116 123.119 206.144C123.612 207.459 123.859 208.691 123.859 209.842C124.024 210.828 124.106 211.979 124.106 213.293C124.106 215.266 123.612 217.567 122.625 220.197C121.803 222.662 120.404 225.045 118.43 227.346C116.621 229.483 114.153 231.373 111.028 233.017C108.066 234.496 104.447 235.236 100.17 235.236C95.7284 235.236 91.8625 234.496 88.5724 233.017C85.4467 231.538 82.8146 229.73 80.676 227.593C78.702 225.292 77.1391 222.744 75.9876 219.95C75.0006 217.156 74.507 214.362 74.507 211.568Z" stroke="white" stroke-opacity="0.8" stroke-width="1.4818"/>
</g>
<g filter="url(#filter2_d_416_10127)">
<path d="M115.716 56H119.664C123.612 56 127.478 56.4931 131.262 57.4792C135.046 58.301 138.418 59.8625 141.379 62.1635C144.34 64.3002 146.726 67.2587 148.535 71.039C150.345 74.8193 151.25 79.668 151.25 85.585V168.423C151.25 174.176 150.427 179.106 148.782 183.215C147.137 187.16 144.916 190.447 142.119 193.077C139.487 195.707 136.362 197.679 132.743 198.994C129.288 200.145 125.586 200.72 121.638 200.72C120.651 200.72 119.664 200.72 118.677 200.72C117.69 200.555 116.703 200.391 115.716 200.227V56ZM84.3775 165.957C80.5938 165.957 76.9746 165.3 73.52 163.985C70.2299 162.506 67.2687 160.451 64.6366 157.822C62.0045 155.027 59.8659 151.658 58.2208 147.713C56.7403 143.604 56 138.838 56 133.414V56H61.182C71.2169 56 78.7842 58.712 83.8839 64.1359C88.9836 69.3954 91.5335 78.0244 91.5335 90.0227V125.032C91.5335 127.004 91.6158 128.894 91.7803 130.702C92.1093 132.51 92.6028 134.154 93.2608 135.633C94.0834 136.948 95.1527 138.098 96.4687 139.084C97.9493 139.906 99.9234 140.317 102.391 140.317C103.707 140.317 105.023 140.153 106.339 139.824C107.82 139.331 109.136 138.591 110.287 137.605C110.287 141.386 109.794 145.001 108.807 148.453C107.82 151.74 106.257 154.699 104.118 157.329C101.98 159.958 99.2653 162.095 95.9752 163.739C92.6851 165.218 88.8191 165.957 84.3775 165.957ZM74.507 211.568C74.507 206.472 75.4118 202.363 77.2214 199.241C79.031 195.953 81.2518 193.406 83.8839 191.598C86.6805 189.79 89.5594 188.639 92.5205 188.146C95.6462 187.489 98.3605 187.16 100.664 187.16C101.815 187.16 102.967 187.242 104.118 187.407C105.434 187.407 106.257 187.489 106.586 187.653V198.994C106.586 202.446 107.408 204.993 109.053 206.637C110.699 208.28 112.755 209.102 115.223 209.102C118.184 209.102 120.816 208.116 123.119 206.144C123.612 207.459 123.859 208.691 123.859 209.842C124.024 210.828 124.106 211.979 124.106 213.293C124.106 215.266 123.612 217.567 122.625 220.197C121.803 222.662 120.404 225.045 118.43 227.346C116.621 229.483 114.153 231.373 111.028 233.017C108.066 234.496 104.447 235.236 100.17 235.236C95.7284 235.236 91.8625 234.496 88.5724 233.017C85.4467 231.538 82.8146 229.73 80.676 227.593C78.702 225.292 77.1391 222.744 75.9876 219.95C75.0006 217.156 74.507 214.362 74.507 211.568Z" stroke="#0038FF" stroke-width="5.9272" shape-rendering="crispEdges"/>
</g>
<g filter="url(#filter3_f_416_10127)">
<path d="M115.716 56H119.664C123.612 56 127.478 56.4931 131.262 57.4792C135.046 58.301 138.418 59.8625 141.379 62.1635C144.34 64.3002 146.726 67.2587 148.535 71.039C150.345 74.8193 151.25 79.668 151.25 85.585V168.423C151.25 174.176 150.427 179.106 148.782 183.215C147.137 187.16 144.916 190.447 142.119 193.077C139.487 195.707 136.362 197.679 132.742 198.994C129.288 200.145 125.586 200.72 121.638 200.72C120.651 200.72 119.664 200.72 118.677 200.72C117.69 200.555 116.703 200.391 115.716 200.227V56ZM84.3775 165.957C80.5938 165.957 76.9746 165.3 73.52 163.985C70.2299 162.506 67.2687 160.451 64.6366 157.822C62.0045 155.027 59.8659 151.658 58.2208 147.713C56.7403 143.604 56 138.838 56 133.414V56H61.182C71.2169 56 78.7842 58.712 83.8839 64.1359C88.9836 69.3954 91.5335 78.0244 91.5335 90.0227V125.032C91.5335 127.004 91.6158 128.894 91.7803 130.702C92.1093 132.51 92.6028 134.154 93.2608 135.633C94.0834 136.948 95.1527 138.098 96.4687 139.084C97.9493 139.906 99.9234 140.317 102.391 140.317C103.707 140.317 105.023 140.153 106.339 139.824C107.82 139.331 109.136 138.591 110.287 137.605C110.287 141.386 109.794 145.001 108.807 148.453C107.82 151.74 106.257 154.699 104.118 157.329C101.98 159.958 99.2653 162.095 95.9752 163.739C92.6851 165.218 88.8191 165.957 84.3775 165.957ZM74.507 211.568C74.507 206.472 75.4118 202.363 77.2214 199.241C79.031 195.953 81.2518 193.406 83.8839 191.598C86.6805 189.79 89.5594 188.639 92.5205 188.146C95.6462 187.489 98.3605 187.16 100.664 187.16C101.815 187.16 102.967 187.242 104.118 187.407C105.434 187.407 106.257 187.489 106.586 187.653V198.994C106.586 202.446 107.408 204.993 109.053 206.637C110.699 208.28 112.755 209.102 115.223 209.102C118.184 209.102 120.816 208.116 123.119 206.144C123.612 207.459 123.859 208.691 123.859 209.842C124.024 210.828 124.106 211.979 124.106 213.293C124.106 215.266 123.612 217.567 122.625 220.197C121.803 222.662 120.404 225.045 118.43 227.346C116.621 229.483 114.153 231.373 111.028 233.017C108.066 234.496 104.447 235.236 100.17 235.236C95.7284 235.236 91.8625 234.496 88.5724 233.017C85.4467 231.538 82.8146 229.73 80.676 227.593C78.702 225.292 77.1391 222.744 75.9876 219.95C75.0006 217.156 74.507 214.362 74.507 211.568Z" stroke="white" stroke-width="1.4818"/>
</g>
<g filter="url(#filter4_f_416_10127)">
<path d="M115.716 56H119.664C123.612 56 127.478 56.4931 131.262 57.4792C135.046 58.301 138.418 59.8625 141.379 62.1635C144.34 64.3002 146.726 67.2587 148.535 71.039C150.345 74.8193 151.25 79.668 151.25 85.585V168.423C151.25 174.176 150.427 179.106 148.782 183.215C147.137 187.16 144.916 190.447 142.119 193.077C139.487 195.707 136.362 197.679 132.742 198.994C129.288 200.145 125.586 200.72 121.638 200.72C120.651 200.72 119.664 200.72 118.677 200.72C117.69 200.555 116.703 200.391 115.716 200.227V56ZM84.3775 165.957C80.5938 165.957 76.9746 165.3 73.52 163.985C70.2299 162.506 67.2687 160.451 64.6366 157.822C62.0045 155.027 59.8659 151.658 58.2208 147.713C56.7403 143.604 56 138.838 56 133.414V56H61.182C71.2169 56 78.7842 58.712 83.8839 64.1359C88.9836 69.3954 91.5335 78.0244 91.5335 90.0227V125.032C91.5335 127.004 91.6158 128.894 91.7803 130.702C92.1093 132.51 92.6028 134.154 93.2608 135.633C94.0834 136.948 95.1527 138.098 96.4687 139.084C97.9493 139.906 99.9234 140.317 102.391 140.317C103.707 140.317 105.023 140.153 106.339 139.824C107.82 139.331 109.136 138.591 110.287 137.605C110.287 141.386 109.794 145.001 108.807 148.453C107.82 151.74 106.257 154.699 104.118 157.329C101.98 159.958 99.2653 162.095 95.9752 163.739C92.6851 165.218 88.8191 165.957 84.3775 165.957ZM74.507 211.568C74.507 206.472 75.4118 202.363 77.2214 199.241C79.031 195.953 81.2518 193.406 83.8839 191.598C86.6805 189.79 89.5594 188.639 92.5205 188.146C95.6462 187.489 98.3605 187.16 100.664 187.16C101.815 187.16 102.967 187.242 104.118 187.407C105.434 187.407 106.257 187.489 106.586 187.653V198.994C106.586 202.446 107.408 204.993 109.053 206.637C110.699 208.28 112.755 209.102 115.223 209.102C118.184 209.102 120.816 208.116 123.119 206.144C123.612 207.459 123.859 208.691 123.859 209.842C124.024 210.828 124.106 211.979 124.106 213.293C124.106 215.266 123.612 217.567 122.625 220.197C121.803 222.662 120.404 225.045 118.43 227.346C116.621 229.483 114.153 231.373 111.028 233.017C108.066 234.496 104.447 235.236 100.17 235.236C95.7284 235.236 91.8625 234.496 88.5724 233.017C85.4467 231.538 82.8146 229.73 80.676 227.593C78.702 225.292 77.1391 222.744 75.9876 219.95C75.0006 217.156 74.507 214.362 74.507 211.568Z" stroke="white" stroke-opacity="0.8" stroke-width="1.4818"/>
</g>
<g filter="url(#filter5_f_416_10127)">
<path d="M115.716 56H119.664C123.612 56 127.478 56.4931 131.262 57.4792C135.046 58.301 138.418 59.8625 141.379 62.1635C144.34 64.3002 146.726 67.2587 148.535 71.039C150.345 74.8193 151.25 79.668 151.25 85.585V168.423C151.25 174.176 150.427 179.106 148.782 183.215C147.137 187.16 144.916 190.447 142.119 193.077C139.487 195.707 136.362 197.679 132.742 198.994C129.288 200.145 125.586 200.72 121.638 200.72C120.651 200.72 119.664 200.72 118.677 200.72C117.69 200.555 116.703 200.391 115.716 200.227V56ZM84.3775 165.957C80.5938 165.957 76.9746 165.3 73.52 163.985C70.2299 162.506 67.2687 160.451 64.6366 157.822C62.0045 155.027 59.8659 151.658 58.2208 147.713C56.7403 143.604 56 138.838 56 133.414V56H61.182C71.2169 56 78.7842 58.712 83.8839 64.1359C88.9836 69.3954 91.5335 78.0244 91.5335 90.0227V125.032C91.5335 127.004 91.6158 128.894 91.7803 130.702C92.1093 132.51 92.6028 134.154 93.2608 135.633C94.0834 136.948 95.1527 138.098 96.4687 139.084C97.9493 139.906 99.9234 140.317 102.391 140.317C103.707 140.317 105.023 140.153 106.339 139.824C107.82 139.331 109.136 138.591 110.287 137.605C110.287 141.386 109.794 145.001 108.807 148.453C107.82 151.74 106.257 154.699 104.118 157.329C101.98 159.958 99.2653 162.095 95.9752 163.739C92.6851 165.218 88.8191 165.957 84.3775 165.957ZM74.507 211.568C74.507 206.472 75.4118 202.363 77.2214 199.241C79.031 195.953 81.2518 193.406 83.8839 191.598C86.6805 189.79 89.5594 188.639 92.5205 188.146C95.6462 187.489 98.3605 187.16 100.664 187.16C101.815 187.16 102.967 187.242 104.118 187.407C105.434 187.407 106.257 187.489 106.586 187.653V198.994C106.586 202.446 107.408 204.993 109.053 206.637C110.699 208.28 112.755 209.102 115.223 209.102C118.184 209.102 120.816 208.116 123.119 206.144C123.612 207.459 123.859 208.691 123.859 209.842C124.024 210.828 124.106 211.979 124.106 213.293C124.106 215.266 123.612 217.567 122.625 220.197C121.803 222.662 120.404 225.045 118.43 227.346C116.621 229.483 114.153 231.373 111.028 233.017C108.066 234.496 104.447 235.236 100.17 235.236C95.7284 235.236 91.8625 234.496 88.5724 233.017C85.4467 231.538 82.8146 229.73 80.676 227.593C78.702 225.292 77.1391 222.744 75.9876 219.95C75.0006 217.156 74.507 214.362 74.507 211.568Z" stroke="#00FFFF" stroke-width="0.740899"/>
</g>
<defs>
<filter id="filter0_f_416_10127" x="0.431591" y="0.432568" width="206.385" height="290.371" filterUnits="userSpaceOnUse" color-interpolation-filters="sRGB">
<feFlood flood-opacity="0" result="BackgroundImageFix"/>
<feBlend mode="normal" in="SourceGraphic" in2="BackgroundImageFix" result="shape"/>
<feGaussianBlur stdDeviation="18.5225" result="effect1_foregroundBlur_416_10127"/>
</filter>
<filter id="filter1_f_416_10127" x="53.778" y="53.7775" width="99.6941" height="183.681" filterUnits="userSpaceOnUse" color-interpolation-filters="sRGB">
<feFlood flood-opacity="0" result="BackgroundImageFix"/>
<feBlend mode="normal" in="SourceGraphic" in2="BackgroundImageFix" result="shape"/>
<feGaussianBlur stdDeviation="0.740899" result="effect1_foregroundBlur_416_10127"/>
</filter>
<filter id="filter2_d_416_10127" x="45.6281" y="45.6276" width="115.994" height="199.981" filterUnits="userSpaceOnUse" color-interpolation-filters="sRGB">
<feFlood flood-opacity="0" result="BackgroundImageFix"/>
<feColorMatrix in="SourceAlpha" type="matrix" values="0 0 0 0 0 0 0 0 0 0 0 0 0 0 0 0 0 0 127 0" result="hardAlpha"/>
<feOffset/>
<feGaussianBlur stdDeviation="3.7045"/>
<feComposite in2="hardAlpha" operator="out"/>
<feColorMatrix type="matrix" values="0 0 0 0 0 0 0 0 0 1 0 0 0 0 0.94 0 0 0 0.8 0"/>
<feBlend mode="normal" in2="BackgroundImageFix" result="effect1_dropShadow_416_10127"/>
<feBlend mode="normal" in="SourceGraphic" in2="effect1_dropShadow_416_10127" result="shape"/>
</filter>
<filter id="filter3_f_416_10127" x="52.2962" y="52.2957" width="102.658" height="186.644" filterUnits="userSpaceOnUse" color-interpolation-filters="sRGB">
<feFlood flood-opacity="0" result="BackgroundImageFix"/>
<feBlend mode="normal" in="SourceGraphic" in2="BackgroundImageFix" result="shape"/>
<feGaussianBlur stdDeviation="1.4818" result="effect1_foregroundBlur_416_10127"/>
</filter>
<filter id="filter4_f_416_10127" x="53.778" y="53.7775" width="99.6941" height="183.681" filterUnits="userSpaceOnUse" color-interpolation-filters="sRGB">
<feFlood flood-opacity="0" result="BackgroundImageFix"/>
<feBlend mode="normal" in="SourceGraphic" in2="BackgroundImageFix" result="shape"/>
<feGaussianBlur stdDeviation="0.740899" result="effect1_foregroundBlur_416_10127"/>
</filter>
<filter id="filter5_f_416_10127" x="54.1471" y="54.1476" width="98.9538" height="182.94" filterUnits="userSpaceOnUse" color-interpolation-filters="sRGB">
<feFlood flood-opacity="0" result="BackgroundImageFix"/>
<feBlend mode="normal" in="SourceGraphic" in2="BackgroundImageFix" result="shape"/>
<feGaussianBlur stdDeviation="0.740899" result="effect1_foregroundBlur_416_10127"/>
</filter>
</defs>
</svg>
