<svg width="315" height="344" viewBox="0 0 315 344" fill="none" xmlns="http://www.w3.org/2000/svg">
<rect x="11" y="78.5762" width="176.661" height="11" transform="rotate(90 11 78.5762)" stroke="#D8552A" stroke-width="2"/>
<rect x="79" y="145.966" width="46.5831" height="5" transform="rotate(90 79 145.966)" stroke="#D8552A" stroke-width="2"/>
<path d="M250 198.034C231.534 198.034 217 186.34 217 172.391C217 158.443 231.534 146.749 250 146.749C268.466 146.749 283 158.443 283 172.391C283 186.34 268.466 198.034 250 198.034Z" stroke="#D8552A" stroke-width="2"/>
<path d="M187 224.046C174.609 224.046 165 216.211 165 207.023C165 197.835 174.609 190 187 190C199.391 190 209 197.835 209 207.023C209 216.211 199.391 224.046 187 224.046Z" stroke="#D8552A" stroke-width="2"/>
<line x1="314" y1="159.07" x2="314" y2="185.713" stroke="#D8552A" stroke-width="2"/>
<rect x="44" y="145.749" width="86.1959" height="3" transform="rotate(90 44 145.749)" fill="#D8552A"/>
<rect x="112" y="134.779" width="108.137" height="3" transform="rotate(90 112 134.779)" fill="#D8552A"/>
</svg>
